{
    "asset" : {
        "generator" : "Khronos glTF Blender I/O v1.1.46",
        "version" : "2.0"
    },
    "extensionsUsed" : [
        "KHR_lights_punctual"
    ],
    "extensionsRequired" : [
        "KHR_lights_punctual"
    ],
    "extensions" : {
        "KHR_lights_punctual" : {
            "lights" : [
                {
                    "color" : [
                        1,
                        1,
                        1
                    ],
                    "intensity" : 10,
                    "type" : "point",
                    "name" : "Point"
                }
            ]
        }
    },
    "scene" : 0,
    "scenes" : [
        {
            "name" : "Scene",
            "nodes" : [
                0,
                1,
                2,
                4
            ]
        }
    ],
    "nodes" : [
        {
            "mesh" : 0,
            "name" : "front-curtains",
            "rotation" : [
                0,
                0,
                0.7071067690849304,
                0.7071068286895752
            ],
            "translation" : [
                3.6698999404907227,
                3.1378014087677,
                0
            ]
        },
        {
            "name" : "alamo.fspy",
            "rotation" : [
                0.6689813733100891,
                0.13726530969142914,
                0.6935637593269348,
                0.2293282300233841
            ],
            "scale" : [
                2.3060944080352783,
                2.3060944080352783,
                2.306094169616699
            ],
            "translation" : [
                0.40867137908935547,
                -13.724100112915039,
                6.695199966430664
            ]
        },
        {
            "mesh" : 1,
            "name" : "room",
            "rotation" : [
                0,
                0,
                0.7071067690849304,
                0.7071068286895752
            ],
            "scale" : [
                2.3060944080352783,
                2.3060944080352783,
                2.3060944080352783
            ],
            "translation" : [
                2.5894508361816406,
                4.705397129058838,
                -0.2992067337036133
            ]
        },
        {
            "extensions" : {
                "KHR_lights_punctual" : {
                    "light" : 0
                }
            },
            "name" : "Point_Orientation",
            "rotation" : [
                -0.7071067690849304,
                0,
                0,
                0.7071067690849304
            ]
        },
        {
            "children" : [
                3
            ],
            "name" : "Point",
            "translation" : [
                6.205144882202148,
                4.249180793762207,
                -3.7378976345062256
            ]
        }
    ],
    "materials" : [
        {
            "doubleSided" : true,
            "emissiveFactor" : [
                0,
                0,
                0
            ],
            "name" : "Material.002",
            "pbrMetallicRoughness" : {
                "baseColorFactor" : [
                    0.006370291113853455,
                    0.006370291113853455,
                    0.006370291113853455,
                    1
                ],
                "metallicFactor" : 0,
                "roughnessFactor" : 0.5
            }
        },
        {
            "doubleSided" : true,
            "emissiveFactor" : [
                0,
                0,
                0
            ],
            "name" : "Material.003",
            "pbrMetallicRoughness" : {
                "baseColorFactor" : [
                    0.195988267660141,
                    0.16678877174854279,
                    0.12797711789608002,
                    1
                ],
                "metallicFactor" : 0,
                "roughnessFactor" : 0.5
            }
        },
        {
            "doubleSided" : true,
            "emissiveFactor" : [
                0,
                0,
                0
            ],
            "name" : "Material.004",
            "pbrMetallicRoughness" : {
                "baseColorFactor" : [
                    0.1192757859826088,
                    0.012757914140820503,
                    0.013642198406159878,
                    1
                ],
                "metallicFactor" : 0,
                "roughnessFactor" : 0.5
            }
        }
    ],
    "meshes" : [
        {
            "name" : "Plane.003",
            "primitives" : [
                {
                    "attributes" : {
                        "POSITION" : 0,
                        "NORMAL" : 1,
                        "TEXCOORD_0" : 2
                    },
                    "indices" : 3,
                    "material" : 0
                }
            ]
        },
        {
            "name" : "Cube.001",
            "primitives" : [
                {
                    "attributes" : {
                        "POSITION" : 4,
                        "NORMAL" : 5,
                        "TEXCOORD_0" : 6
                    },
                    "indices" : 7,
                    "material" : 1
                },
                {
                    "attributes" : {
                        "POSITION" : 8,
                        "NORMAL" : 9,
                        "TEXCOORD_0" : 10
                    },
                    "indices" : 11,
                    "material" : 2
                }
            ]
        }
    ],
    "accessors" : [
        {
            "bufferView" : 0,
            "componentType" : 5126,
            "count" : 340,
            "max" : [
                3.7490313053131104,
                8.334324836730957,
                7.353017807006836
            ],
            "min" : [
                3.4891865253448486,
                -0.9172525405883789,
                -7.999032020568848
            ],
            "type" : "VEC3"
        },
        {
            "bufferView" : 1,
            "componentType" : 5126,
            "count" : 340,
            "type" : "VEC3"
        },
        {
            "bufferView" : 2,
            "componentType" : 5126,
            "count" : 340,
            "type" : "VEC2"
        },
        {
            "bufferView" : 3,
            "componentType" : 5123,
            "count" : 510,
            "type" : "SCALAR"
        },
        {
            "bufferView" : 4,
            "componentType" : 5126,
            "count" : 36,
            "max" : [
                1,
                3.1627206802368164,
                3.3012542724609375
            ],
            "min" : [
                -11.369025230407715,
                -1,
                -3.3876988887786865
            ],
            "type" : "VEC3"
        },
        {
            "bufferView" : 5,
            "componentType" : 5126,
            "count" : 36,
            "type" : "VEC3"
        },
        {
            "bufferView" : 6,
            "componentType" : 5126,
            "count" : 36,
            "type" : "VEC2"
        },
        {
            "bufferView" : 7,
            "componentType" : 5123,
            "count" : 72,
            "type" : "SCALAR"
        },
        {
            "bufferView" : 8,
            "componentType" : 5126,
            "count" : 24,
            "max" : [
                1,
                3.1627206802368164,
                3.3012542724609375
            ],
            "min" : [
                -11.369025230407715,
                -1,
                -3.3876988887786865
            ],
            "type" : "VEC3"
        },
        {
            "bufferView" : 9,
            "componentType" : 5126,
            "count" : 24,
            "type" : "VEC3"
        },
        {
            "bufferView" : 10,
            "componentType" : 5126,
            "count" : 24,
            "type" : "VEC2"
        },
        {
            "bufferView" : 11,
            "componentType" : 5123,
            "count" : 60,
            "type" : "SCALAR"
        }
    ],
    "bufferViews" : [
        {
            "buffer" : 0,
            "byteLength" : 4080,
            "byteOffset" : 0
        },
        {
            "buffer" : 0,
            "byteLength" : 4080,
            "byteOffset" : 4080
        },
        {
            "buffer" : 0,
            "byteLength" : 2720,
            "byteOffset" : 8160
        },
        {
            "buffer" : 0,
            "byteLength" : 1020,
            "byteOffset" : 10880
        },
        {
            "buffer" : 0,
            "byteLength" : 432,
            "byteOffset" : 11900
        },
        {
            "buffer" : 0,
            "byteLength" : 432,
            "byteOffset" : 12332
        },
        {
            "buffer" : 0,
            "byteLength" : 288,
            "byteOffset" : 12764
        },
        {
            "buffer" : 0,
            "byteLength" : 144,
            "byteOffset" : 13052
        },
        {
            "buffer" : 0,
            "byteLength" : 288,
            "byteOffset" : 13196
        },
        {
            "buffer" : 0,
            "byteLength" : 288,
            "byteOffset" : 13484
        },
        {
            "buffer" : 0,
            "byteLength" : 192,
            "byteOffset" : 13772
        },
        {
            "buffer" : 0,
            "byteLength" : 120,
            "byteOffset" : 13964
        }
    ],
    "buffers" : [
        {
            "byteLength" : 14084,
            "uri" : "data:application/octet-stream;base64,"
        }
    ]
}
